<?xml version="1.0" encoding="UTF-8" standalone="no"?>
<!-- Generator: Adobe Illustrator 26.3.1, SVG Export Plug-In . SVG Version: 6.00 Build 0)  -->

<svg
   version="1.1"
   id="Vrstva_1"
   x="0px"
   y="0px"
   viewBox="0 0 246.60999 50.519998"
   xml:space="preserve"
   sodipodi:docname="logo.svg"
   width="246.61"
   height="50.52"
   inkscape:version="1.2 (dc2aeda, 2022-05-15)"
   xmlns:inkscape="http://www.inkscape.org/namespaces/inkscape"
   xmlns:sodipodi="http://sodipodi.sourceforge.net/DTD/sodipodi-0.dtd"
   xmlns="http://www.w3.org/2000/svg"
   xmlns:svg="http://www.w3.org/2000/svg"><defs
   id="defs191" /><sodipodi:namedview
   id="namedview189"
   pagecolor="#505050"
   bordercolor="#eeeeee"
   borderopacity="1"
   inkscape:showpageshadow="0"
   inkscape:pageopacity="0"
   inkscape:pagecheckerboard="0"
   inkscape:deskcolor="#505050"
   showgrid="false"
   inkscape:zoom="3.5462057"
   inkscape:cx="109.27172"
   inkscape:cy="24.956251"
   inkscape:window-width="1680"
   inkscape:window-height="997"
   inkscape:window-x="0"
   inkscape:window-y="25"
   inkscape:window-maximized="1"
   inkscape:current-layer="Vrstva_1" />
<style
   type="text/css"
   id="style132">
	.st0{fill:#136F63;}
</style>
<g
   id="g184"
   inkscape:export-filename="logo.svg"
   inkscape:export-xdpi="96"
   inkscape:export-ydpi="96"
   transform="translate(-8.42,-8.39)">
	<path
   class="st0"
   d="m 105.79,26 v -0.81 l -1.85,-0.21 c -0.04,-1.73 -0.04,-3.47 -0.04,-5.2 v -1 c 0,-1.76 0.01,-3.49 0.04,-5.2 l 1.85,-0.21 v -0.81 h -3.94 L 97.56,23.68 93.03,12.56 h -3.68 v 0.81 l 1.81,0.23 V 24.94 L 89.35,25.2 V 26 h 4.5 V 25.19 L 92.2,24.94 V 18.57 L 92.09,14.74 96.69,26 h 1 l 4.37,-11.26 v 5.05 c 0,1.75 -0.01,3.48 -0.04,5.19 l -1.7,0.21 V 26 Z"
   id="path134" />
	<path
   class="st0"
   d="m 111.95,26.26 c 1.83,0 3.12,-0.9 3.85,-2.33 l -0.47,-0.37 c -0.72,0.84 -1.52,1.41 -2.8,1.41 -1.96,0 -3.23,-1.32 -3.27,-3.79 h 6.42 c 0.08,-0.26 0.14,-0.66 0.14,-1.12 0,-2.43 -1.64,-3.85 -3.73,-3.85 -2.5,0 -4.6,2.04 -4.6,5.13 -0.01,3.05 1.75,4.92 4.46,4.92 z m 0.03,-9.15 c 1.25,0 2.2,1.03 2.2,2.18 0,0.57 -0.22,1.03 -1.19,1.03 h -3.7 c 0.24,-2.3 1.54,-3.21 2.69,-3.21 z"
   id="path136" />
	<polygon
   class="st0"
   points="114.38,11.17 112.08,13.27 109.78,11.17 109.29,11.56 111.33,14.53 112.83,14.53 114.87,11.56 "
   id="polygon138" />
	<path
   class="st0"
   d="m 121.14,25.35 c -0.62,0 -1.15,-0.12 -1.63,-0.34 l -0.39,-1.72 h -1.08 l 0.08,2.2 c 0.99,0.51 1.86,0.77 2.99,0.77 2.58,0 3.9,-1.36 3.9,-2.87 0,-1.25 -0.76,-2.2 -2.77,-2.94 l -0.62,-0.22 c -1.37,-0.5 -1.86,-0.84 -1.86,-1.73 0,-0.84 0.64,-1.38 1.87,-1.38 0.49,0 0.95,0.13 1.4,0.36 l 0.32,1.59 h 1.03 l 0.08,-2.04 c -0.87,-0.52 -1.72,-0.82 -2.81,-0.82 -2.25,0 -3.48,1.35 -3.48,2.81 0,1.37 0.96,2.16 2.43,2.7 l 0.93,0.34 c 1.27,0.46 1.86,0.9 1.86,1.76 0.01,0.92 -0.71,1.53 -2.25,1.53 z"
   id="path140" />
	<path
   class="st0"
   d="m 132.55,25.22 -0.46,-0.54 c -0.52,0.38 -0.92,0.56 -1.36,0.56 -0.68,0 -1.12,-0.44 -1.12,-1.48 v -6.23 h 2.75 v -1.06 h -2.71 l 0.12,-2.74 h -1.2 l -0.52,2.69 -1.78,0.23 v 0.88 h 1.67 v 4.75 c 0,0.78 -0.02,1.21 -0.02,1.7 0,1.56 0.87,2.29 2.27,2.29 1.03,-0.01 1.86,-0.4 2.36,-1.05 z"
   id="path142" />
	<path
   class="st0"
   d="m 138.03,20.45 -0.62,-0.22 c -1.37,-0.5 -1.86,-0.84 -1.86,-1.73 0,-0.84 0.64,-1.38 1.87,-1.38 0.49,0 0.95,0.13 1.4,0.36 l 0.32,1.59 h 1.03 l 0.08,-2.04 c -0.87,-0.52 -1.72,-0.82 -2.81,-0.82 -2.25,0 -3.48,1.35 -3.48,2.81 0,1.37 0.96,2.16 2.43,2.7 l 0.93,0.34 c 1.27,0.46 1.86,0.9 1.86,1.76 0,0.92 -0.72,1.53 -2.25,1.53 -0.62,0 -1.15,-0.12 -1.63,-0.34 l -0.39,-1.72 h -1.08 l 0.08,2.2 c 0.99,0.51 1.86,0.77 2.99,0.77 2.58,0 3.9,-1.36 3.9,-2.87 0,-1.25 -0.76,-2.2 -2.77,-2.94 z"
   id="path144" />
	<path
   class="st0"
   d="m 143.83,21.78 c 0,1.07 -0.02,2.15 -0.04,3.22 l -1.61,0.29 V 26 h 4.96 V 25.29 L 145.54,25 c -0.02,-0.87 -0.03,-1.75 -0.03,-2.63 l 1.34,-1.37 3.11,4.99 h 2.7 v -0.71 l -1.32,-0.24 -3.32,-5.23 2.23,-2.29 1.89,-0.29 v -0.77 h -4.66 v 0.77 l 1.48,0.37 -3.45,3.59 v -7.04 l 0.08,-2.85 -0.28,-0.16 -3.11,0.9 v 0.71 l 1.65,0.2 v 8.83 z"
   id="path146" />
	<path
   class="st0"
   d="m 157.17,20.72 c -2.71,0.98 -3.32,1.89 -3.32,3.03 0,1.67 1.22,2.51 2.69,2.51 1.18,0 1.86,-0.52 2.96,-1.61 0.17,0.96 0.84,1.55 1.8,1.55 0.7,0 1.25,-0.27 1.73,-1.04 l -0.41,-0.44 c -0.22,0.26 -0.44,0.44 -0.78,0.44 -0.46,0 -0.73,-0.32 -0.73,-1.2 v -4.27 c 0,-2.54 -1.01,-3.49 -3.09,-3.49 -2.04,0 -3.53,0.95 -3.9,2.48 0.04,0.51 0.37,0.81 0.92,0.81 0.55,0 0.86,-0.33 1.04,-0.94 l 0.39,-1.31 c 0.43,-0.1 0.8,-0.14 1.11,-0.14 1.32,0 1.88,0.48 1.88,2.45 v 0.5 c -0.82,0.2 -1.67,0.45 -2.29,0.67 z m -1.57,2.74 c 0,-0.6 0.21,-1.36 1.99,-2.05 0.43,-0.17 1.15,-0.41 1.86,-0.6 v 3.06 c -1.16,0.83 -1.56,1.07 -2.23,1.07 -0.92,0.01 -1.62,-0.42 -1.62,-1.48 z"
   id="path148" />
	<path
   class="st0"
   d="m 160.3,12.62 c 0.55,-0.51 0.67,-0.81 0.67,-1.09 0,-0.51 -0.37,-0.76 -0.76,-0.76 -0.35,0 -0.7,0.21 -1.08,0.82 -0.63,0.96 -1.21,1.89 -1.78,2.83 l 0.51,0.39 c 0.83,-0.73 1.63,-1.44 2.44,-2.19 z"
   id="path150" />
	<path
   class="st0"
   d="m 170.52,25 -1.61,0.29 V 26 h 4.96 V 25.29 L 172.27,25 c -0.02,-0.87 -0.03,-1.75 -0.03,-2.63 l 1.34,-1.37 3.11,4.99 h 2.7 v -0.71 l -1.32,-0.24 -3.32,-5.23 2.23,-2.29 1.89,-0.29 v -0.77 h -4.66 v 0.77 l 1.48,0.37 -3.45,3.59 v -7.04 l 0.08,-2.85 -0.28,-0.16 -3.11,0.9 v 0.71 l 1.65,0.2 v 8.83 c -0.02,1.07 -0.03,2.15 -0.06,3.22 z"
   id="path152" />
	<path
   class="st0"
   d="m 189.78,21.78 v -1.87 c 0,-2.64 -0.84,-3.71 -2.56,-3.71 -1.26,0 -2.65,0.76 -3.61,1.83 l -0.17,-1.62 -0.3,-0.2 -2.78,1.21 v 0.71 l 1.59,0.18 c 0.04,0.8 0.06,1.42 0.06,2.52 v 0.95 c 0,0.9 -0.01,2.22 -0.03,3.23 l -1.5,0.27 V 26 h 4.65 v -0.71 l -1.42,-0.28 c -0.02,-1.01 -0.03,-2.33 -0.03,-3.22 v -2.9 c 1.04,-0.87 1.84,-1.25 2.77,-1.25 1.19,0 1.67,0.6 1.67,2.45 v 1.7 c 0,0.93 -0.01,2.23 -0.03,3.23 l -1.5,0.27 V 26 h 4.65 v -0.71 l -1.42,-0.28 c -0.03,-1 -0.04,-2.31 -0.04,-3.23 z"
   id="path154" />
	<path
   class="st0"
   d="m 196,21.78 v -2.65 l 0.06,-2.72 -0.3,-0.2 -3.08,1.21 v 0.71 l 1.63,0.18 c 0.04,0.8 0.06,1.43 0.06,2.53 v 0.94 c 0,0.9 -0.01,2.22 -0.03,3.23 l -1.54,0.28 V 26 h 4.65 v -0.71 l -1.42,-0.28 C 196.01,24 196,22.68 196,21.78 Z"
   id="path156" />
	<path
   class="st0"
   d="m 195.17,13.96 c 0.75,0 1.34,-0.53 1.34,-1.28 0,-0.77 -0.59,-1.28 -1.34,-1.28 -0.75,0 -1.34,0.51 -1.34,1.28 0,0.76 0.59,1.28 1.34,1.28 z"
   id="path158" />
	<path
   class="st0"
   d="m 208.38,21.78 v -1.87 c 0,-2.64 -0.84,-3.71 -2.57,-3.71 -1.27,0 -2.7,0.78 -3.68,1.86 v -3.91 l 0.08,-2.85 -0.28,-0.16 -3.05,0.9 v 0.71 l 1.65,0.2 v 8.83 c 0,0.9 -0.01,2.22 -0.03,3.23 l -1.52,0.28 V 26 h 4.65 v -0.71 l -1.4,-0.28 C 202.21,24 202.2,22.68 202.2,21.78 v -2.84 c 1.08,-0.95 1.89,-1.31 2.85,-1.31 1.19,0 1.67,0.6 1.67,2.45 v 1.7 c 0,0.93 -0.01,2.23 -0.03,3.23 l -1.5,0.27 V 26 h 4.65 v -0.71 l -1.42,-0.28 c -0.03,-1 -0.04,-2.31 -0.04,-3.23 z"
   id="path160" />
	<path
   class="st0"
   d="m 216.25,16.21 c -2.33,0 -4.6,1.74 -4.6,5.07 0,3.33 2.26,4.99 4.6,4.99 2.3,0 4.6,-1.66 4.6,-4.99 0,-3.33 -2.31,-5.07 -4.6,-5.07 z m 0,9.14 c -1.77,0 -2.74,-1.38 -2.74,-4.08 0,-2.7 0.97,-4.16 2.74,-4.16 1.73,0 2.74,1.46 2.74,4.16 -0.01,2.7 -1.02,4.08 -2.74,4.08 z"
   id="path162" />
	<polygon
   class="st0"
   points="229.85,17.52 227.58,23.98 225.1,17.49 226.9,17.24 226.9,16.47 222.05,16.47 222.05,17.24 223.15,17.43 226.8,26.12 227.65,26.12 230.92,17.5 232,17.24 232,16.47 228.18,16.47 228.18,17.24 "
   id="polygon164" />
	<path
   class="st0"
   d="m 242.6,21.78 v -1.87 c 0,-2.64 -0.84,-3.71 -2.56,-3.71 -1.26,0 -2.65,0.76 -3.61,1.83 l -0.17,-1.62 -0.3,-0.2 -2.78,1.21 v 0.71 l 1.59,0.18 c 0.04,0.8 0.06,1.42 0.06,2.52 v 0.95 c 0,0.9 -0.01,2.22 -0.03,3.23 l -1.5,0.27 V 26 h 4.65 v -0.71 l -1.42,-0.28 C 236.51,24 236.5,22.68 236.5,21.79 v -2.9 c 1.04,-0.87 1.84,-1.25 2.77,-1.25 1.19,0 1.67,0.6 1.67,2.45 v 1.7 c 0,0.93 -0.01,2.23 -0.03,3.23 l -1.5,0.27 V 26 h 4.65 v -0.71 l -1.42,-0.28 c -0.03,-1 -0.04,-2.31 -0.04,-3.23 z"
   id="path166" />
	<path
   class="st0"
   d="m 254.61,24.72 c -0.22,0.26 -0.44,0.44 -0.78,0.44 -0.46,0 -0.73,-0.32 -0.73,-1.2 v -4.27 c 0,-2.54 -1.01,-3.49 -3.09,-3.49 -2.04,0 -3.53,0.95 -3.9,2.48 0.04,0.51 0.37,0.81 0.92,0.81 0.55,0 0.86,-0.33 1.04,-0.94 l 0.39,-1.31 c 0.43,-0.1 0.8,-0.14 1.11,-0.14 1.32,0 1.88,0.48 1.88,2.45 v 0.5 c -0.81,0.19 -1.66,0.45 -2.28,0.67 -2.71,0.98 -3.32,1.89 -3.32,3.03 0,1.67 1.22,2.51 2.69,2.51 1.18,0 1.86,-0.52 2.96,-1.61 0.17,0.96 0.84,1.55 1.8,1.55 0.7,0 1.25,-0.27 1.73,-1.04 z m -7.02,-1.26 c 0,-0.6 0.21,-1.36 1.99,-2.05 0.43,-0.17 1.15,-0.41 1.86,-0.6 v 3.06 c -1.16,0.83 -1.56,1.07 -2.23,1.07 -0.92,0.01 -1.62,-0.42 -1.62,-1.48 z"
   id="path168" />
	<path
   class="st0"
   d="m 89,33.76 -0.05,3.53 h 1.67 l 0.33,-2.44 h 1.9 c 0.03,1.58 0.04,3.17 0.04,4.75 v 0.65 c 0,1.56 -0.01,3.11 -0.04,4.63 l -1.54,0.15 v 1.06 h 6.6 V 45.03 L 96.35,44.88 C 96.32,43.34 96.31,41.79 96.31,40.24 V 39.6 c 0,-1.61 0.01,-3.19 0.04,-4.75 h 1.92 l 0.33,2.44 h 1.65 l -0.04,-3.53 z"
   id="path170" />
	<path
   class="st0"
   d="m 112.75,42.93 c -0.26,-1.81 -0.85,-2.83 -3.16,-3.12 2.58,-0.41 3.38,-1.71 3.38,-2.95 0,-1.93 -1.63,-3.09 -4.61,-3.09 h -6.3 v 1.06 l 1.35,0.14 c 0.03,1.55 0.04,3.1 0.04,4.64 v 0.65 c 0,1.57 -0.01,3.12 -0.04,4.64 l -1.35,0.14 v 1.06 h 6.21 v -1.06 l -1.42,-0.14 c -0.03,-1.48 -0.04,-2.96 -0.04,-4.46 h 0.64 c 1.05,0 1.47,0.63 1.62,1.85 l 0.27,2.03 c 0.18,1.57 1.2,2.07 2.88,2.07 0.92,0 1.19,-0.06 2.19,-0.28 v -1.06 l -1.39,-0.15 z m -5.36,-3.58 h -0.57 c 0,-1.52 0.01,-3 0.04,-4.46 h 0.6 c 1.46,0 2.28,0.71 2.28,2.21 -0.01,1.15 -0.5,2.25 -2.35,2.25 z"
   id="path172" />
	<path
   class="st0"
   d="m 123.12,33.76 v 1.06 l 1.67,0.13 v 5.87 c 0,2.75 -1,3.86 -2.6,3.86 -1.76,0 -2.6,-1.03 -2.6,-3.86 v -1.44 c 0,-1.48 0.01,-2.95 0.04,-4.41 l 1.48,-0.15 v -1.06 h -6.3 v 1.06 l 1.32,0.13 c 0.03,1.48 0.04,2.97 0.04,4.43 v 2.05 c 0,3.68 2.06,5.03 4.85,5.03 3.22,0 5.06,-1.73 5.06,-5.73 v -5.78 l 1.54,-0.12 v -1.06 h -4.5 z"
   id="path174" />
	<path
   class="st0"
   d="m 129.17,33.76 -0.05,3.53 h 1.67 l 0.33,-2.44 h 1.9 c 0.03,1.58 0.04,3.17 0.04,4.75 v 0.65 c 0,1.56 -0.01,3.11 -0.04,4.63 l -1.54,0.15 v 1.06 h 6.6 v -1.06 l -1.56,-0.15 c -0.03,-1.54 -0.04,-3.09 -0.04,-4.64 V 39.6 c 0,-1.61 0.01,-3.19 0.04,-4.75 h 1.92 l 0.33,2.44 h 1.65 l -0.04,-3.53 z"
   id="path176" />
	<polygon
   class="st0"
   points="151.82,35.06 151.82,41.04 146.52,33.76 142,33.76 142,34.84 143.29,34.94 143.59,35.36 143.59,44.81 141.99,45.04 141.99,46.1 147.04,46.1 147.04,45.04 144.85,44.79 144.85,37.12 151.3,46.12 153.08,46.12 153.08,35.06 154.68,34.82 154.68,33.76 149.63,33.76 149.63,34.82 "
   id="polygon178" />
	<path
   class="st0"
   d="m 162.26,33.4 c -3.13,0 -6.02,2.15 -6.02,6.53 0,4.41 2.88,6.53 6.02,6.53 3.15,0 6.02,-2.15 6.02,-6.53 0,-4.41 -2.89,-6.53 -6.02,-6.53 z m 0,11.94 c -1.76,0 -2.44,-2.23 -2.44,-5.41 0,-3.16 0.68,-5.43 2.44,-5.43 1.76,0 2.43,2.26 2.43,5.43 0.01,3.18 -0.67,5.41 -2.43,5.41 z"
   id="path180" />
	<polygon
   class="st0"
   points="178.95,35.01 176.43,42.47 173.97,34.96 175.53,34.76 175.53,33.76 169.27,33.76 169.27,34.82 170.3,34.93 174.28,46.12 176.32,46.12 180.19,35.04 181.53,34.82 181.53,33.76 177.5,33.76 177.5,34.76 "
   id="polygon182" />
</g>
<path
   class="st0"
   d="M 70.53,15.68 39.55,0 30.73,1.8 c 3.96,2.86 7.93,5.69 11.92,8.5 0.08,0.06 0.13,0.12 0.13,0.17 0,0.06 -0.04,0.1 -0.12,0.13 -0.08,0.02 -0.16,0.03 -0.27,0.01 C 42.28,10.59 42.19,10.56 42.1,10.5 41.82,10.3 41.68,10.21 41.41,10.01 40.73,9.53 39.28,8.72 36.96,7.48 34.64,6.24 32.46,5.15 30.46,4.23 29.17,3.64 28.27,3.28 27.83,3.18 27.38,3.09 27.04,3.06 26.82,3.11 26.51,3.17 26.35,3.21 26.04,3.27 34.87,9.99 43.76,16.62 52.75,23.14 Z M 63.13,30.12 29.62,45.9 28.75,45.05 c -0.16,-1.02 -0.26,-2.19 -0.26,-3.53 0,-6.26 2.25,-9.14 2.25,-9.14 L 47.17,25.49 C 38.39,18.52 29.73,11.39 21.03,4.33 c -0.2,0.04 -0.3,0.06 -0.51,0.11 -0.35,0.07 -0.54,0.23 -0.58,0.46 -0.05,0.35 0.31,1.02 1.01,1.98 1.12,1.53 2.54,3.25 4.15,5.05 1.6,1.8 2.53,2.83 3.01,3.25 0.15,0.13 0.23,0.2 0.38,0.33 0.09,0.08 0.13,0.15 0.12,0.21 0,0.06 -0.04,0.11 -0.1,0.13 -0.08,0.03 -0.16,0.03 -0.24,0.01 C 28.14,15.83 28.04,15.78 27.96,15.71 23.83,12.07 19.64,8.5 15.44,4.94 L 2.02,7.68 c 0,0 -2.02,1.87 -2.02,6.58 0,4.6 2.02,7.06 2.02,7.06 l 28.72,29.2 39.81,-20.22 -7.4,-3.75 v 3.57 z"
   id="path186" />
</svg>
