<?xml version="1.0" encoding="UTF-8" standalone="no"?>
<!-- Created with Inkscape (http://www.inkscape.org/) -->

<svg
   width="73.25206mm"
   height="26.458334mm"
   viewBox="0 0 73.252058 26.458334"
   version="1.1"
   id="svg3668"
   inkscape:version="1.2 (dc2aeda, 2022-05-15)"
   sodipodi:docname="logo-dnnt.svg"
   xmlns:inkscape="http://www.inkscape.org/namespaces/inkscape"
   xmlns:sodipodi="http://sodipodi.sourceforge.net/DTD/sodipodi-0.dtd"
   xmlns="http://www.w3.org/2000/svg"
   xmlns:svg="http://www.w3.org/2000/svg">
  <sodipodi:namedview
     id="namedview3670"
     pagecolor="#505050"
     bordercolor="#eeeeee"
     borderopacity="1"
     inkscape:showpageshadow="0"
     inkscape:pageopacity="0"
     inkscape:pagecheckerboard="0"
     inkscape:deskcolor="#505050"
     inkscape:document-units="mm"
     showgrid="false"
     inkscape:zoom="1.052973"
     inkscape:cx="118.7115"
     inkscape:cy="118.23665"
     inkscape:window-width="1680"
     inkscape:window-height="997"
     inkscape:window-x="0"
     inkscape:window-y="25"
     inkscape:window-maximized="1"
     inkscape:current-layer="layer1" />
  <defs
     id="defs3665">
    <clipPath
       clipPathUnits="userSpaceOnUse"
       id="clipPath1854">
      <path
         d="M 0,0 H 595.276 V 841.89 H 0 Z"
         id="path1852" />
    </clipPath>
    <clipPath
       clipPathUnits="userSpaceOnUse"
       id="clipPath1878">
      <path
         d="M 0,0 H 595.276 V 841.89 H 0 Z"
         id="path1876" />
    </clipPath>
  </defs>
  <g
     inkscape:label="Layer 1"
     inkscape:groupmode="layer"
     id="layer1"
     transform="translate(-35.914527,-81.726051)">
    <g
       id="g1848"
       transform="matrix(0.23091864,0,0,-0.23091864,3.8104626,228.02306)">
      <g
         id="g1850"
         clip-path="url(#clipPath1854)">
        <g
           id="g1856"
           transform="translate(139.0276,631.8899)">
          <path
             d="m 0,0 h 16.236 c 15.863,0 23.919,-7.931 23.919,-21.795 v -0.499 c 0,-13.926 -8.244,-22.358 -23.98,-22.358 H 0 Z m 15.799,-34.784 c 7.619,0 10.992,3.997 10.992,12.302 v 0.5 c 0,8.493 -3.373,12.115 -11.116,12.115 h -2.811 v -24.917 z"
             style="fill:#3b8ca6;fill-opacity:1;fill-rule:nonzero;stroke:none"
             id="path1858" />
        </g>
      </g>
    </g>
    <g
       id="g1860"
       transform="matrix(0.23091864,0,0,-0.23091864,46.630372,82.107899)">
      <path
         d="m 0,0 h 14.426 l 14.3,-25.167 V 0 H 39.904 V -44.652 H 27.54 L 11.241,-16.611 V -44.652 H 0 Z"
         style="fill:#656263;fill-opacity:1;fill-rule:nonzero;stroke:none"
         id="path1862" />
    </g>
    <g
       id="g1864"
       transform="matrix(0.23091864,0,0,-0.23091864,36.192598,97.873406)">
      <path
         d="M 0,0 H 14.427 L 28.726,-25.167 V 0 H 39.904 V -44.652 H 27.54 L 11.241,-16.611 V -44.652 H 0 Z"
         style="fill:#3b8ca6;fill-opacity:1;fill-rule:nonzero;stroke:none"
         id="path1866" />
    </g>
    <g
       id="g1868"
       transform="matrix(0.23091864,0,0,-0.23091864,50.175648,100.15195)">
      <path
         d="m 0,0 h -11.553 v 9.867 h 35.97 V 0 H 12.864 V -34.784 H 0 Z"
         style="fill:#3b8ca6;fill-opacity:1;fill-rule:nonzero;stroke:none"
         id="path1870" />
    </g>
    <g
       id="g1872"
       transform="matrix(0.23091864,0,0,-0.23091864,3.8104626,228.02306)">
      <g
         id="g1874"
         clip-path="url(#clipPath1878)">
        <g
           id="g1880"
           transform="translate(249.8895,631.933)">
          <path
             d="m 0,0 h 5.249 c 6.831,0 10.052,-4.221 10.052,-9.748 v -0.25 c 0,-5.497 -3.165,-9.858 -10.108,-9.858 H 0 Z m 5.138,-17.884 c 5.11,0 7.664,3.054 7.664,7.914 v 0.222 c 0,4.582 -2.222,7.804 -7.692,7.804 H 2.416 v -15.94 z"
             style="fill:#4f4c4d;fill-opacity:1;fill-rule:nonzero;stroke:none"
             id="path1882" />
        </g>
      </g>
    </g>
    <path
       d="m 65.950205,83.329205 h 0.532272 v 3.353862 h -0.532272 z m 0.423273,-1.519676 h 0.666898 l -0.666898,0.94261 h -0.39764 z"
       style="fill:#4f4c4d;fill-opacity:1;fill-rule:nonzero;stroke:none;stroke-width:0.230919"
       id="path1884" />
    <path
       d="m 67.584646,81.726167 h 0.538733 v 4.9569 h -0.538733 z"
       style="fill:#4f4c4d;fill-opacity:1;fill-rule:nonzero;stroke:none;stroke-width:0.230919"
       id="path1886" />
    <g
       id="g1896"
       transform="matrix(0.23091864,0,0,-0.23091864,68.937045,85.753203)">
      <path
         d="m 0,0 c 0,3.36 3.554,4.499 7.276,4.499 h 2.082 v 1.055 c 0,2.305 -0.889,3.277 -3.11,3.277 -1.999,0 -3.11,-0.833 -3.332,-2.611 H 0.611 c 0.306,3.305 2.943,4.527 5.748,4.527 2.777,0 5.304,-1.138 5.304,-5.193 v -9.58 H 9.358 v 1.833 C 8.275,-3.555 6.97,-4.276 4.832,-4.276 2.138,-4.276 0,-2.971 0,0 M 9.358,1.055 V 2.861 H 7.359 C 4.443,2.861 2.305,2.138 2.305,0 c 0,-1.5 0.722,-2.443 2.749,-2.443 2.444,0 4.304,1.249 4.304,3.498"
         style="fill:#4f4c4d;fill-opacity:1;fill-rule:nonzero;stroke:none"
         id="path1898" />
    </g>
    <g
       id="g1900"
       transform="matrix(0.23091864,0,0,-0.23091864,74.372825,83.329135)">
      <path
         d="m 0,0 h 2.304 v -2.305 c 0.667,1.36 2.278,2.555 4.666,2.555 2.999,0 5.109,-1.638 5.109,-5.86 v -8.914 H 9.775 v 9.08 c 0,2.555 -1.084,3.694 -3.416,3.694 -2.139,0 -4.055,-1.361 -4.055,-3.971 v -8.803 H 0 Z"
         style="fill:#4f4c4d;fill-opacity:1;fill-rule:nonzero;stroke:none"
         id="path1902" />
    </g>
    <g
       id="g1904"
       transform="matrix(0.23091864,0,0,-0.23091864,77.955713,85.041397)">
      <path
         d="m 0,0 v 0.222 c 0,4.388 2.805,7.443 6.804,7.443 3.36,0 6.525,-2.027 6.525,-7.221 v -0.75 H 2.388 c 0.111,-3.304 1.694,-5.137 4.666,-5.137 2.249,0 3.555,0.833 3.86,2.527 h 2.305 C 12.719,-5.831 10.303,-7.359 7.026,-7.359 2.916,-7.359 0,-4.471 0,0 M 10.969,1.555 C 10.747,4.554 9.192,5.749 6.804,5.749 4.443,5.749 2.861,4.137 2.472,1.555 Z"
         style="fill:#4f4c4d;fill-opacity:1;fill-rule:nonzero;stroke:none"
         id="path1906" />
    </g>
    <g
       id="g1908"
       transform="matrix(0.23091864,0,0,-0.23091864,81.596518,85.073448)">
      <path
         d="m 0,0 v 0.222 c 0,4.443 2.777,7.582 6.776,7.582 2.416,0 3.916,-1.167 4.748,-2.583 v 9.275 h 2.305 V -6.97 h -2.305 v 2.499 C 10.692,-5.888 8.664,-7.22 6.554,-7.22 2.75,-7.22 0,-4.526 0,0 m 11.608,0.195 v 0.222 c 0,3.72 -1.777,5.47 -4.61,5.47 -2.888,0 -4.61,-2.027 -4.61,-5.554 V 0.111 c 0,-3.666 1.972,-5.415 4.416,-5.415 2.693,0 4.804,1.777 4.804,5.499"
         style="fill:#4f4c4d;fill-opacity:1;fill-rule:nonzero;stroke:none"
         id="path1910" />
    </g>
    <g
       id="g1912"
       transform="matrix(0.23091864,0,0,-0.23091864,85.615468,85.034954)">
      <path
         d="m 0,0 v 0.222 c 0,4.36 3.027,7.415 7.137,7.415 4.11,0 7.137,-3.028 7.137,-7.387 V 0.028 c 0,-4.388 -3.027,-7.415 -7.165,-7.415 C 2.972,-7.387 0,-4.249 0,0 m 11.886,0 v 0.194 c 0,3.361 -1.861,5.527 -4.749,5.527 -2.916,0 -4.749,-2.166 -4.749,-5.499 V 0 c 0,-3.305 1.805,-5.471 4.749,-5.471 2.916,0 4.749,2.194 4.749,5.471"
         style="fill:#4f4c4d;fill-opacity:1;fill-rule:nonzero;stroke:none"
         id="path1914" />
    </g>
    <g
       id="g1916"
       transform="matrix(0.23091864,0,0,-0.23091864,89.461462,85.65056)">
      <path
         d="m 0,0 h 2.249 c 0.167,-1.722 1.084,-2.805 3.416,-2.805 2.194,0 3.165,0.75 3.165,2.305 0,1.528 -1.138,2.027 -3.387,2.443 -3.777,0.695 -5.054,1.75 -5.054,4.278 0,2.693 2.638,4.082 4.915,4.082 2.611,0 4.86,-1.056 5.249,-4.194 H 8.33 C 7.998,7.692 7.109,8.387 5.276,8.387 3.61,8.387 2.527,7.553 2.527,6.303 c 0,-1.305 0.722,-1.832 3.387,-2.305 3,-0.554 5.11,-1.221 5.11,-4.304 0,-2.638 -1.805,-4.415 -5.331,-4.415 C 2.222,-4.721 0.139,-2.972 0,0"
         style="fill:#4f4c4d;fill-opacity:1;fill-rule:nonzero;stroke:none"
         id="path1918" />
    </g>
    <g
       id="g1920"
       transform="matrix(0.23091864,0,0,-0.23091864,92.929335,85.843008)">
      <path
         d="m 0,0 v 8.942 h -2.083 v 1.944 H 0 v 3.305 H 2.305 V 10.886 H 5.693 V 8.942 H 2.305 V 0.223 c 0,-1.417 0.638,-2.111 1.804,-2.111 0.723,0 1.278,0.111 1.778,0.305 V -3.527 C 5.415,-3.693 4.859,-3.831 3.915,-3.831 1.277,-3.831 0,-2.277 0,0"
         style="fill:#4f4c4d;fill-opacity:1;fill-rule:nonzero;stroke:none"
         id="path1922" />
    </g>
    <g
       id="g1924"
       transform="matrix(0.23091864,0,0,-0.23091864,95.057226,85.451786)">
      <path
         d="M 0,0 V 9.192 H 2.305 V 0.111 c 0,-2.555 1.083,-3.693 3.36,-3.693 2.055,0 3.999,1.361 3.999,3.971 v 8.803 h 2.304 V -5.332 H 9.664 v 2.305 C 8.997,-4.387 7.387,-5.582 5.054,-5.582 2.166,-5.582 0,-3.998 0,0"
         style="fill:#4f4c4d;fill-opacity:1;fill-rule:nonzero;stroke:none"
         id="path1926" />
    </g>
    <g
       id="g1928"
       transform="matrix(0.23091864,0,0,-0.23091864,98.896778,83.329135)">
      <path
         d="m 0,0 h 2.304 v -2.444 c 0.834,1.416 2.805,2.694 4.916,2.694 3.804,0 6.609,-2.777 6.609,-7.304 v -0.222 c 0,-4.443 -2.611,-7.498 -6.609,-7.498 -2.388,0 -4.082,1.195 -4.916,2.638 v -7.442 H 0 Z m 11.441,-7.387 v 0.222 c 0,3.666 -2.028,5.499 -4.471,5.499 -2.694,0 -4.749,-1.778 -4.749,-5.499 v -0.222 c 0,-3.721 1.944,-5.471 4.776,-5.471 2.889,0 4.444,1.944 4.444,5.471"
         style="fill:#4f4c4d;fill-opacity:1;fill-rule:nonzero;stroke:none"
         id="path1930" />
    </g>
    <g
       id="g1932"
       transform="matrix(0.23091864,0,0,-0.23091864,102.91589,83.329135)">
      <path
         d="m 0,0 h 2.304 v -2.305 c 0.668,1.36 2.277,2.555 4.666,2.555 2.999,0 5.11,-1.638 5.11,-5.86 v -8.914 H 9.774 v 9.08 c 0,2.555 -1.083,3.694 -3.415,3.694 -2.139,0 -4.055,-1.361 -4.055,-3.971 v -8.803 H 0 Z"
         style="fill:#4f4c4d;fill-opacity:1;fill-rule:nonzero;stroke:none"
         id="path1934" />
    </g>
    <g
       id="g1936"
       transform="matrix(0.23091864,0,0,-0.23091864,106.47338,85.753203)">
      <path
         d="M 0,0 C 0,3.36 3.554,4.499 7.275,4.499 H 9.359 V 5.554 C 9.359,7.859 8.47,8.831 6.248,8.831 4.249,8.831 3.138,7.998 2.916,6.22 H 0.612 c 0.305,3.305 2.942,4.527 5.747,4.527 2.778,0 5.304,-1.138 5.304,-5.193 v -9.58 H 9.359 v 1.833 C 8.275,-3.555 6.97,-4.276 4.832,-4.276 2.138,-4.276 0,-2.971 0,0 M 9.359,1.055 V 2.861 H 7.36 C 4.444,2.861 2.304,2.138 2.304,0 c 0,-1.5 0.724,-2.443 2.75,-2.443 2.443,0 4.305,1.249 4.305,3.498 M 7.082,17.079 H 9.969 L 7.082,12.996 H 5.359 Z"
         style="fill:#4f4c4d;fill-opacity:1;fill-rule:nonzero;stroke:none"
         id="path1938" />
    </g>
    <g
       id="g1940"
       transform="matrix(0.23091864,0,0,-0.23091864,61.476274,89.018047)">
      <path
         d="m 0,0 h 2.304 v -2.305 c 0.667,1.36 2.278,2.555 4.666,2.555 2.999,0 5.109,-1.638 5.109,-5.86 v -8.914 H 9.775 v 9.08 c 0,2.555 -1.084,3.694 -3.416,3.694 -2.139,0 -4.055,-1.361 -4.055,-3.971 v -8.803 H 0 Z"
         style="fill:#4f4c4d;fill-opacity:1;fill-rule:nonzero;stroke:none"
         id="path1942" />
    </g>
    <g
       id="g1944"
       transform="matrix(0.23091864,0,0,-0.23091864,65.033555,91.442115)">
      <path
         d="m 0,0 c 0,3.36 3.554,4.499 7.276,4.499 h 2.082 v 1.055 c 0,2.305 -0.889,3.277 -3.11,3.277 -1.999,0 -3.11,-0.834 -3.332,-2.611 H 0.611 c 0.306,3.305 2.943,4.527 5.748,4.527 2.777,0 5.304,-1.138 5.304,-5.193 v -9.58 H 9.358 v 1.833 C 8.276,-3.554 6.97,-4.276 4.832,-4.276 2.138,-4.276 0,-2.971 0,0 M 9.358,1.055 V 2.861 H 7.359 C 4.443,2.861 2.305,2.138 2.305,0 c 0,-1.5 0.722,-2.443 2.749,-2.443 2.444,0 4.304,1.249 4.304,3.498"
         style="fill:#4f4c4d;fill-opacity:1;fill-rule:nonzero;stroke:none"
         id="path1946" />
    </g>
    <g
       id="g1948"
       transform="matrix(0.23091864,0,0,-0.23091864,70.584925,91.531896)">
      <path
         d="m 0,0 v 8.942 h -2.083 v 1.944 H 0 v 3.305 H 2.305 V 10.886 H 5.693 V 8.942 H 2.305 V 0.223 c 0,-1.417 0.638,-2.111 1.804,-2.111 0.723,0 1.278,0.111 1.778,0.306 V -3.527 C 5.415,-3.693 4.859,-3.832 3.915,-3.832 1.277,-3.832 0,-2.277 0,0"
         style="fill:#4f4c4d;fill-opacity:1;fill-rule:nonzero;stroke:none"
         id="path1950" />
    </g>
    <g
       id="g1952"
       transform="matrix(0.23091864,0,0,-0.23091864,72.744897,89.018047)">
      <path
         d="M 0,0 H 2.304 V -2.611 C 3.221,-0.973 4.47,0.166 7.081,0.25 V -1.916 C 4.165,-2.055 2.304,-2.972 2.304,-6.554 v -7.97 H 0 Z"
         style="fill:#4f4c4d;fill-opacity:1;fill-rule:nonzero;stroke:none"
         id="path1954" />
    </g>
    <g
       id="g1956"
       transform="matrix(0.23091864,0,0,-0.23091864,75.154876,87.41501)">
      <path
         d="m 0,0 h 2.304 v -9.247 c 0.667,1.36 2.278,2.555 4.666,2.555 2.999,0 5.109,-1.638 5.109,-5.86 v -8.914 H 9.775 v 9.08 c 0,2.555 -1.083,3.694 -3.416,3.694 -2.139,0 -4.055,-1.361 -4.055,-3.971 v -8.803 H 0 Z"
         style="fill:#4f4c4d;fill-opacity:1;fill-rule:nonzero;stroke:none"
         id="path1958" />
    </g>
    <g
       id="g1960"
       transform="matrix(0.23091864,0,0,-0.23091864,78.955913,91.140697)">
      <path
         d="M 0,0 V 9.192 H 2.305 V 0.111 c 0,-2.555 1.083,-3.693 3.36,-3.693 2.055,0 3.999,1.361 3.999,3.971 v 8.803 h 2.304 V -5.332 H 9.664 v 2.305 C 8.997,-4.387 7.387,-5.582 5.054,-5.582 2.166,-5.582 0,-3.998 0,0"
         style="fill:#4f4c4d;fill-opacity:1;fill-rule:nonzero;stroke:none"
         id="path1962" />
    </g>
  </g>
</svg>
