<?xml version="1.0" encoding="UTF-8" standalone="no"?>
<!-- Created with Inkscape (http://www.inkscape.org/) -->

<svg
   xmlns:dc="http://purl.org/dc/elements/1.1/"
   xmlns:cc="http://creativecommons.org/ns#"
   xmlns:rdf="http://www.w3.org/1999/02/22-rdf-syntax-ns#"
   xmlns:svg="http://www.w3.org/2000/svg"
   xmlns="http://www.w3.org/2000/svg"
   xmlns:sodipodi="http://sodipodi.sourceforge.net/DTD/sodipodi-0.dtd"
   xmlns:inkscape="http://www.inkscape.org/namespaces/inkscape"
   version="1.1"
   id="svg29"
   xml:space="preserve"
   width="83.816063"
   height="60"
   viewBox="0 0 83.816062 59.999999"
   sodipodi:docname="logo.svg"
   inkscape:version="0.92.1 r15371"><metadata
     id="metadata35"><rdf:RDF><cc:Work
         rdf:about=""><dc:format>image/svg+xml</dc:format><dc:type
           rdf:resource="http://purl.org/dc/dcmitype/StillImage" /><dc:title></dc:title></cc:Work></rdf:RDF></metadata><defs
     id="defs33"><clipPath
       clipPathUnits="userSpaceOnUse"
       id="clipPath45"><path
         d="m 119.055,336.378 h 374.173 v 322.3 H 119.055 Z"
         id="path43"
         inkscape:connector-curvature="0" /></clipPath><clipPath
       clipPathUnits="userSpaceOnUse"
       id="clipPath169"><path
         d="m 255.118,104.882 h 98.594 v 84.926 h -98.594 z"
         id="path167"
         inkscape:connector-curvature="0" /></clipPath><clipPath
       clipPathUnits="userSpaceOnUse"
       id="clipPath293"><path
         d="M 0,0 H 595.276 V 841.89 H 0 Z"
         id="path291"
         inkscape:connector-curvature="0" /></clipPath></defs><sodipodi:namedview
     pagecolor="#ffffff"
     bordercolor="#666666"
     borderopacity="1"
     objecttolerance="10"
     gridtolerance="10"
     guidetolerance="10"
     inkscape:pageopacity="0"
     inkscape:pageshadow="2"
     inkscape:window-width="1600"
     inkscape:window-height="840"
     id="namedview31"
     showgrid="false"
     fit-margin-top="0"
     fit-margin-left="0"
     fit-margin-right="0"
     fit-margin-bottom="0"
     inkscape:zoom="1.6504113"
     inkscape:cx="110.74669"
     inkscape:cy="104.71016"
     inkscape:window-x="0"
     inkscape:window-y="0"
     inkscape:window-maximized="1"
     inkscape:current-layer="g41" /><g
     id="g37"
     inkscape:groupmode="layer"
     inkscape:label="2009 - Logo - manual"
     transform="matrix(1.3333333,0,0,-1.3333333,-271.28908,541.60444)"><g
       id="g39"
       transform="translate(-30.847879,-101.54094)"><g
         id="g41"
         clip-path="url(#clipPath45)"><g
           id="g51"
           transform="translate(67.4955,36.2314)"><path
             d="m 0,0 c 0,-0.358 -0.241,-1.53 -0.721,-3.516 -0.494,-0.739 -0.938,-1.497 -1.333,-2.274 -0.332,-1.419 -0.72,-2.807 -1.165,-4.163 -0.235,-0.678 -0.696,-2.017 -1.387,-4.015 -0.211,-1.468 -0.445,-2.762 -0.704,-3.884 -0.703,-3.022 -1.054,-4.958 -1.054,-5.81 0,-0.025 0.11,-0.727 0.333,-2.109 0.222,-1.381 0.333,-2.09 0.333,-2.127 -0.011,-0.099 -0.08,-0.377 -0.203,-0.831 -0.235,-0.15 -0.488,-0.223 -0.759,-0.223 -0.198,0 -0.561,0.191 -1.091,0.573 -0.518,0.368 -0.858,0.691 -1.018,0.962 -0.58,0.999 -0.869,2.597 -0.869,4.792 0,0.283 0.004,0.585 0.018,0.906 -0.087,0.333 -0.149,0.504 -0.186,0.518 -0.012,0 -0.017,-0.018 -0.017,-0.056 0.011,0.075 0.066,0.34 0.166,0.795 0.099,0.457 0.173,0.846 0.222,1.167 0.369,2.85 1.227,6.129 2.572,9.842 -0.099,0.308 -0.16,0.462 -0.185,0.462 l 0.887,2.737 c -0.691,-0.443 -1.794,-1.689 -3.312,-3.736 -0.234,-0.53 -0.554,-1.166 -0.961,-1.906 -1.222,-2.159 -3.749,-5.74 -7.585,-10.748 -0.185,-0.235 -0.777,-0.807 -1.776,-1.722 -1.171,-1.071 -1.948,-1.609 -2.332,-1.609 -1.947,0 -2.922,2.818 -2.922,8.455 v 7.53 c -0.395,-0.197 -1.258,-1.27 -2.59,-3.219 -0.123,-0.296 -1.425,-2.844 -3.904,-7.642 l -3.626,-6.991 c -0.234,-0.445 -0.58,-0.667 -1.035,-0.667 -1.444,0 -2.167,0.875 -2.167,2.627 0,0.555 1.111,2.787 3.331,6.697 2.097,3.688 3.967,6.789 5.606,9.306 0.026,0.221 0.117,0.529 0.277,0.925 1.147,1.579 2.875,3.959 5.18,7.141 0.075,0.012 0.15,0.019 0.222,0.019 0.668,0 1.321,-0.247 1.962,-0.741 0.69,-0.554 1.036,-1.172 1.036,-1.849 v -3.609 c -0.037,-0.023 -0.129,-0.123 -0.278,-0.296 -0.038,-0.173 -0.161,-1.96 -0.37,-5.364 -0.11,-1.961 -0.179,-2.942 -0.203,-2.942 v 0.037 l 0.185,-2.886 c 0.061,-0.075 0.179,-0.112 0.35,-0.112 0.272,0 0.648,0.31 1.129,0.925 0.247,0.309 0.513,0.668 0.796,1.075 0.505,0.727 1.659,2.336 3.46,4.828 0.777,1.036 2.281,3.077 4.514,6.124 2.307,3.169 4.428,5.628 6.364,7.38 0.37,0.445 0.906,1.075 1.609,1.886 C -2.695,2.553 -1.999,2.336 -1.109,2.016 -0.913,1.671 -0.721,1.332 -0.537,0.999 -0.18,0.383 0,0.049 0,0"
             style="fill:#231f20;fill-opacity:1;fill-rule:nonzero;stroke:none"
             id="path53"
             inkscape:connector-curvature="0" /></g><g
           id="g55"
           transform="translate(79.002,15.604)"><path
             d="M 0,0 C -0.184,0.578 -0.32,1.048 -0.406,1.406 -0.444,1.529 -0.782,1.75 -1.424,2.071 -2.831,1.949 -4.347,1.744 -5.976,1.461 -6.383,1.399 -6.907,1.152 -7.548,0.721 -8.176,0.289 -8.492,-0.043 -8.492,-0.277 c 0,-0.223 0.068,-0.334 0.203,-0.334 h 5.865 C -1.053,-0.611 -0.247,-0.407 0,0 M 3.792,1.498 C 3.879,1.215 3.923,0.802 3.923,0.258 3.923,-0.05 3.91,-0.407 3.885,-0.814 3.786,-2.024 3.522,-2.74 3.09,-2.961 c -0.666,0 -2.115,-0.147 -4.349,-0.443 l -3.328,-0.445 h 0.017 c 0,-0.025 -0.579,-0.159 -1.737,-0.407 -0.138,0.111 -0.476,0.167 -1.018,0.167 -0.162,-0.16 -0.253,-0.253 -0.278,-0.278 0,-0.345 1.3,-0.88 3.904,-1.61 0.715,-0.036 1.529,-0.103 2.44,-0.202 1.531,-0.186 2.297,-0.567 2.297,-1.147 0,-0.161 -0.477,-0.481 -1.426,-0.963 -0.037,-0.036 -0.29,-0.282 -0.757,-0.74 -0.878,-0.087 -1.316,-0.142 -1.316,-0.167 h 0.037 c -0.06,0 -0.691,0.044 -1.886,0.131 l -1.943,0.148 c -0.407,0 -1.072,0.216 -1.997,0.647 -0.198,0.099 -0.734,0.376 -1.611,0.833 -1.048,0.37 -2,1.063 -2.858,2.081 -0.856,1.018 -1.286,1.945 -1.286,2.785 0,1.035 0.13,1.8 0.389,2.294 1.839,3.614 5.568,5.421 11.192,5.421 1.826,0 3.195,-0.42 4.108,-1.26 C 2.4,3.243 3.101,2.447 3.792,1.498"
             style="fill:#231f20;fill-opacity:1;fill-rule:nonzero;stroke:none"
             id="path57"
             inkscape:connector-curvature="0" /></g><g
           id="g59"
           transform="translate(101.8503,11.3115)"><path
             d="m 0,0 c 0,-0.21 -0.241,-0.502 -0.721,-0.879 -0.481,-0.375 -0.951,-0.632 -1.406,-0.767 -0.839,-0.26 -2.455,-0.758 -4.848,-1.499 -2.713,-0.827 -4.736,-1.238 -6.067,-1.238 -0.037,0 -0.296,0.047 -0.778,0.147 -0.48,0.1 -0.734,0.147 -0.757,0.147 -0.05,0 -0.508,-0.098 -1.37,-0.294 -0.197,0 -0.463,0.234 -0.796,0.702 -0.344,0.443 -0.517,0.784 -0.517,1.018 0,0.073 0.19,0.363 0.573,0.869 l 5.678,1.053 c 2.432,0.444 4.09,0.932 4.978,1.462 0,0.075 -0.012,0.149 -0.037,0.223 -0.419,0.32 -1.753,0.942 -3.996,1.869 -2.355,0.973 -3.712,1.566 -4.069,1.775 -0.444,0.148 -1.148,0.537 -2.109,1.166 -0.273,0.258 -0.408,0.795 -0.408,1.61 0,-0.062 -0.013,-0.093 -0.037,-0.093 -0.023,0 -0.068,0.104 -0.13,0.314 -0.024,0.075 -0.036,0.148 -0.036,0.222 0,0.518 0.592,1.005 1.775,1.462 1.419,0.554 3.535,1.074 6.346,1.564 2.812,0.486 5.124,0.73 6.937,0.73 0.493,0 0.814,-0.081 0.962,-0.241 0.74,-0.813 1.11,-1.407 1.11,-1.776 0,-0.703 -0.24,-1.164 -0.721,-1.388 C -0.863,8.048 -2.724,7.812 -6.031,7.457 -6.66,7.196 -7.01,7.068 -7.086,7.068 c -0.037,0 -0.141,0.024 -0.314,0.072 -0.198,0.05 -0.314,0.074 -0.351,0.074 -0.68,0 -1.468,-0.22 -2.367,-0.665 0.171,-0.321 0.454,-0.587 0.85,-0.795 0.406,-0.062 1.263,-0.284 2.572,-0.667 0.32,-0.123 0.991,-0.363 2.016,-0.72 l 0.277,-0.093 c 0.197,-0.063 0.795,-0.309 1.795,-0.74 0.616,-0.26 1.165,-0.692 1.647,-1.294 0.197,-0.224 0.363,-0.681 0.499,-1.37 0,-0.025 0.076,-0.161 0.231,-0.408 C -0.077,0.216 0,0.063 0,0"
             style="fill:#231f20;fill-opacity:1;fill-rule:nonzero;stroke:none"
             id="path61"
             inkscape:connector-curvature="0" /></g><g
           id="g63"
           transform="translate(126.7691,20.6359)"><path
             d="m 0,0 c 0,-0.432 -0.182,-0.76 -0.546,-0.98 -0.362,-0.223 -1.05,-0.427 -2.062,-0.612 -0.864,-0.172 -1.425,-0.357 -1.683,-0.555 -1.049,-0.136 -1.603,-0.203 -1.665,-0.203 -1.024,0 -2.541,-0.142 -4.551,-0.425 -0.629,-0.074 -1.006,-0.284 -1.129,-0.629 -0.246,-0.703 -0.511,-1.801 -0.795,-3.293 -0.025,-1.271 -0.259,-3.306 -0.703,-6.106 -0.419,-0.579 -0.629,-0.888 -0.629,-0.925 -1.358,0.075 -2.197,0.284 -2.517,0.629 -0.146,0.173 -0.221,0.643 -0.221,1.406 0,0.937 0.29,3.8 0.868,8.584 -0.307,0.271 -0.604,0.407 -0.887,0.407 h -0.111 c -0.358,-0.049 -0.64,-0.073 -0.851,-0.073 -0.137,0 -0.24,0.011 -0.315,0.036 -1.245,0.063 -2.478,0.112 -3.7,0.148 -1.529,0.259 -2.293,1.024 -2.293,2.295 0,0.431 0.166,0.819 0.5,1.165 0.331,0.345 0.708,0.518 1.129,0.518 0.036,0 0.384,-0.034 1.045,-0.102 0.659,-0.067 1.014,-0.102 1.062,-0.102 0.025,0 0.311,0.025 0.861,0.074 0.549,0.05 0.842,0.074 0.879,0.074 0.037,0 0.191,-0.056 0.462,-0.166 0.26,-0.098 0.408,-0.147 0.444,-0.147 0.061,0 0.426,0.023 1.091,0.072 0.641,0.05 0.975,0.075 1,0.075 0.629,0 1.023,0.315 1.184,0.943 0.136,0.506 0.34,1.315 0.611,2.424 l 1.276,3.608 c 0.049,0.48 0.147,1.128 0.296,1.943 0.32,0.454 0.635,1.004 0.944,1.645 1.442,3.022 2.664,4.533 3.662,4.533 0.433,0 1.041,-0.703 1.831,-2.109 0,-0.247 -0.228,-0.814 -0.684,-1.702 C -6.444,12.154 -6.765,11.698 -7.16,11.081 -7.479,10.069 -8.163,8.17 -9.213,5.382 -9.521,4.582 -9.773,3.304 -9.971,1.553 -9.046,1.294 -8.509,1.165 -8.361,1.165 l 0.998,0.129 c 0.853,0.113 1.456,0.166 1.814,0.166 0.901,0 1.67,-0.073 2.312,-0.221 L -2.274,1.018 C -0.758,1.018 0,0.678 0,0"
             style="fill:#231f20;fill-opacity:1;fill-rule:nonzero;stroke:none"
             id="path65"
             inkscape:connector-curvature="0" /></g><g
           id="g67"
           transform="translate(142.1436,11.3115)"><path
             d="m 0,0 c 0,-0.21 -0.241,-0.502 -0.721,-0.879 -0.481,-0.375 -0.951,-0.632 -1.407,-0.767 -0.838,-0.26 -2.455,-0.758 -4.848,-1.499 -2.712,-0.827 -4.736,-1.238 -6.067,-1.238 -0.037,0 -0.295,0.047 -0.777,0.147 -0.481,0.1 -0.734,0.147 -0.757,0.147 -0.05,0 -0.508,-0.098 -1.372,-0.294 -0.196,0 -0.461,0.234 -0.795,0.702 -0.343,0.443 -0.516,0.784 -0.516,1.018 0,0.073 0.189,0.363 0.572,0.869 l 5.679,1.053 c 2.431,0.444 4.09,0.932 4.978,1.462 0,0.075 -0.012,0.149 -0.038,0.223 -0.419,0.32 -1.752,0.942 -3.995,1.869 -2.356,0.973 -3.712,1.566 -4.069,1.775 -0.444,0.148 -1.148,0.537 -2.109,1.166 -0.274,0.258 -0.408,0.795 -0.408,1.61 0,-0.062 -0.013,-0.093 -0.038,-0.093 -0.023,0 -0.068,0.104 -0.129,0.314 -0.024,0.075 -0.036,0.148 -0.036,0.222 0,0.518 0.592,1.005 1.775,1.462 1.419,0.554 3.535,1.074 6.346,1.564 2.812,0.486 5.124,0.73 6.937,0.73 0.493,0 0.814,-0.081 0.961,-0.241 0.741,-0.813 1.111,-1.407 1.111,-1.776 0,-0.703 -0.24,-1.164 -0.721,-1.388 -0.42,-0.11 -2.282,-0.346 -5.587,-0.701 -0.629,-0.261 -0.98,-0.389 -1.056,-0.389 -0.036,0 -0.14,0.024 -0.313,0.072 -0.198,0.05 -0.315,0.074 -0.351,0.074 -0.68,0 -1.468,-0.22 -2.368,-0.665 0.172,-0.321 0.455,-0.587 0.85,-0.795 0.407,-0.062 1.264,-0.284 2.572,-0.667 0.32,-0.123 0.992,-0.363 2.017,-0.72 l 0.277,-0.093 c 0.197,-0.063 0.795,-0.309 1.794,-0.74 0.616,-0.26 1.166,-0.692 1.648,-1.294 0.197,-0.224 0.363,-0.681 0.499,-1.37 0,-0.025 0.076,-0.161 0.23,-0.408 C -0.077,0.216 0,0.063 0,0"
             style="fill:#231f20;fill-opacity:1;fill-rule:nonzero;stroke:none"
             id="path69"
             inkscape:connector-curvature="0" /></g><g
           id="g71"
           transform="translate(150.1719,13.9753)"><path
             d="m 0,0 c -0.568,-2.01 -0.998,-3.57 -1.295,-4.68 -0.481,-0.197 -0.807,-0.579 -0.981,-1.148 -0.124,-0.48 -0.394,-0.721 -0.812,-0.721 -0.273,0 -0.587,0.203 -0.945,0.611 -0.604,0.665 -0.942,1.035 -1.018,1.11 0.715,1.985 1.122,3.613 1.222,4.885 0.023,0.257 0.215,0.961 0.572,2.109 0.334,1.022 0.507,1.726 0.519,2.108 0.591,1.937 1.129,3.434 1.609,4.495 0.802,3.478 1.42,6.168 1.851,8.066 0.296,0.606 0.549,1.104 0.757,1.498 0,0.297 -0.018,0.537 -0.054,0.724 0.456,0.934 0.708,1.448 0.758,1.534 0.21,0.53 0.421,1.073 0.63,1.628 0.332,0.617 0.825,0.925 1.479,0.925 0.802,0 1.202,-0.402 1.202,-1.203 0,-0.838 -0.073,-1.468 -0.221,-1.886 C 4.114,16.971 3.528,14.745 3.515,13.376 L 0.888,3.681 c 0.741,0.445 1.302,0.668 1.683,0.668 0.039,0 0.123,0.032 0.26,0.101 0.136,0.067 0.223,0.101 0.259,0.101 -0.025,0 -0.043,0.012 -0.056,0.036 0,0.051 0.315,0.193 0.945,0.426 1.269,0.445 2.318,0.785 3.144,1.018 0.307,0.074 1.586,0.568 3.829,1.479 1.837,0.741 2.819,1.111 2.942,1.111 h -0.018 c 0,-0.036 0.561,-0.296 1.682,-0.777 V 6.456 C 15.558,5.742 15.294,5.237 14.763,4.94 14.233,4.656 12.512,4.058 9.602,3.145 6.876,2.293 5.243,1.64 4.699,1.184 5.501,0.961 6.259,0.838 6.975,0.814 l 5.068,-1.332 c 0.359,-0.086 1.401,-0.66 3.127,-1.72 2.047,-1.259 3.071,-2.122 3.071,-2.59 v -0.964 c -0.432,-0.184 -0.727,-0.32 -0.888,-0.405 -0.554,-0.259 -0.893,-0.388 -1.017,-0.388 -0.099,0.036 -0.555,0.27 -1.369,0.703 -0.913,0.481 -1.764,0.815 -2.553,0.999 C 11.907,-4.76 10.977,-4.459 9.62,-3.979 7.93,-3.422 6.814,-3.058 6.272,-2.886 4.94,-2.418 4.058,-2.102 3.626,-1.943 1.851,-1.275 0.641,-0.629 0,0"
             style="fill:#231f20;fill-opacity:1;fill-rule:nonzero;stroke:none"
             id="path73"
             inkscape:connector-curvature="0" /></g><g
           id="g75"
           transform="translate(187.8208,7.6124)"><path
             d="m 0,0 c 0,-0.42 -0.126,-0.808 -0.38,-1.167 -0.252,-0.358 -0.539,-0.535 -0.86,-0.535 -0.444,0.097 -1.757,0.727 -3.941,1.886 -1.258,0.654 -1.942,0.998 -2.052,1.037 -0.495,0 -1.185,-0.199 -2.074,-0.593 -1.184,-0.53 -1.875,-0.828 -2.071,-0.887 -0.777,-0.261 -1.553,-0.389 -2.331,-0.389 -0.974,0 -2.19,0.655 -3.644,1.961 -0.482,0.715 -0.722,1.344 -0.722,1.888 0,0.739 0.234,1.723 0.703,2.959 0.123,0.296 0.475,0.58 1.055,0.85 l 1.091,0.5 c 2.529,1.542 4.835,2.313 6.92,2.313 0.604,0 1.387,-0.173 2.348,-0.518 0.272,-0.112 0.62,-0.518 1.046,-1.223 0.426,-0.701 0.638,-1.219 0.638,-1.552 0,-0.592 -0.345,-1.104 -1.036,-1.536 -1.456,0.814 -2.584,1.22 -3.386,1.22 -0.862,0 -1.757,-0.215 -2.682,-0.646 -1.16,-0.544 -2.085,-1.135 -2.775,-1.776 0.074,-0.357 0.488,-0.536 1.239,-0.536 -0.061,0 -0.092,0.005 -0.092,0.017 0,0.087 0.783,0.372 2.35,0.853 1.874,0.578 3.256,0.868 4.144,0.868 0.258,0 1.134,-0.623 2.627,-1.869 C -2.27,1.756 -1.117,0.894 -0.426,0.534 -0.143,0.3 0,0.123 0,0"
             style="fill:#231f20;fill-opacity:1;fill-rule:nonzero;stroke:none"
             id="path77"
             inkscape:connector-curvature="0" /></g><g
           id="g79"
           transform="translate(185.7157,25.5046)"><path
             d="m 0,0 c 0,-0.554 -1.24,-1.535 -3.719,-2.94 -0.283,-0.113 -0.721,-0.285 -1.314,-0.52 -2.355,-1.43 -3.799,-2.145 -4.329,-2.145 -0.937,0 -1.406,0.412 -1.406,1.239 0,0.038 0.025,0.216 0.073,0.538 0.062,0.307 0.093,0.48 0.093,0.517 1.049,0.469 2.511,1.079 4.386,1.832 0.258,0.197 0.511,0.356 0.758,0.482 2.418,1.146 3.853,1.719 4.31,1.719 0.21,0 0.454,-0.084 0.732,-0.25 C -0.14,0.306 0,0.149 0,0"
             style="fill:#231f20;fill-opacity:1;fill-rule:nonzero;stroke:none"
             id="path81"
             inkscape:connector-curvature="0" /></g><g
           id="g83"
           transform="translate(212.222,13.9753)"><path
             d="m 0,0 c -0.568,-2.01 -0.998,-3.57 -1.295,-4.68 -0.481,-0.197 -0.807,-0.579 -0.981,-1.148 -0.124,-0.48 -0.394,-0.721 -0.812,-0.721 -0.273,0 -0.587,0.203 -0.945,0.611 -0.604,0.665 -0.942,1.035 -1.018,1.11 0.715,1.985 1.122,3.613 1.222,4.885 0.023,0.257 0.215,0.961 0.572,2.109 0.334,1.022 0.507,1.726 0.519,2.108 0.591,1.937 1.129,3.434 1.609,4.495 0.802,3.478 1.42,6.168 1.851,8.066 0.296,0.606 0.549,1.104 0.757,1.498 0,0.297 -0.018,0.537 -0.054,0.724 0.456,0.934 0.708,1.448 0.758,1.534 0.21,0.53 0.421,1.073 0.63,1.628 0.332,0.617 0.825,0.925 1.479,0.925 0.802,0 1.202,-0.402 1.202,-1.203 0,-0.838 -0.073,-1.468 -0.221,-1.886 C 4.114,16.971 3.528,14.745 3.515,13.376 L 0.888,3.681 c 0.741,0.445 1.302,0.668 1.683,0.668 0.039,0 0.124,0.032 0.26,0.101 0.136,0.067 0.223,0.101 0.259,0.101 -0.025,0 -0.043,0.012 -0.056,0.036 0,0.051 0.315,0.193 0.945,0.426 1.268,0.445 2.318,0.785 3.144,1.018 0.307,0.074 1.585,0.568 3.829,1.479 1.837,0.741 2.819,1.111 2.942,1.111 h -0.018 c 0,-0.036 0.561,-0.296 1.682,-0.777 V 6.456 C 15.558,5.742 15.293,5.237 14.763,4.94 14.233,4.656 12.511,4.058 9.602,3.145 6.876,2.293 5.242,1.64 4.699,1.184 5.501,0.961 6.259,0.838 6.975,0.814 l 5.068,-1.332 c 0.358,-0.086 1.401,-0.66 3.127,-1.72 2.047,-1.259 3.071,-2.122 3.071,-2.59 v -0.964 c -0.432,-0.184 -0.727,-0.32 -0.888,-0.405 -0.554,-0.259 -0.893,-0.388 -1.017,-0.388 -0.099,0.036 -0.555,0.27 -1.369,0.703 -0.913,0.481 -1.764,0.815 -2.553,0.999 C 11.907,-4.76 10.976,-4.459 9.62,-3.979 7.93,-3.422 6.814,-3.058 6.272,-2.886 4.94,-2.418 4.058,-2.102 3.626,-1.943 1.851,-1.275 0.641,-0.629 0,0"
             style="fill:#231f20;fill-opacity:1;fill-rule:nonzero;stroke:none"
             id="path85"
             inkscape:connector-curvature="0" /></g><g
           id="g87"
           transform="translate(250.2023,9.6655)"><path
             d="m 0,0 c 0,-1.789 -0.419,-2.683 -1.257,-2.683 -0.111,0 -0.395,0.11 -0.852,0.333 -0.531,0.259 -0.918,0.414 -1.165,0.463 -0.703,1.096 -1.055,2.194 -1.055,3.293 0,1.221 -0.407,3.107 -1.221,5.661 -0.135,0.172 -0.438,0.258 -0.906,0.258 -0.407,0 -0.938,-0.178 -1.592,-0.536 -0.11,-0.063 -0.291,-0.16 -0.534,-0.297 L -9.638,5.938 c -0.481,-0.346 -1.401,-1.314 -2.757,-2.904 -1.554,-1.825 -2.504,-2.738 -2.849,-2.738 -0.888,0 -1.634,0.56 -2.239,1.683 -0.516,0.937 -0.776,1.843 -0.776,2.718 0,0.347 0.263,1.056 0.795,2.129 0,0.221 0.056,0.581 0.166,1.072 0.074,0.284 0.401,0.957 0.981,2.016 0.025,0 0.21,0.043 0.555,0.131 0.346,0.062 0.542,0.093 0.593,0.093 0.037,-0.174 0.307,-0.463 0.813,-0.87 0.506,-0.408 0.851,-0.609 1.037,-0.609 0.036,0 1.17,0.491 3.403,1.479 2.221,0.998 3.36,1.498 3.424,1.498 1.257,0 2.613,-0.925 4.068,-2.776 C -2.102,8.454 -1.636,7.725 -1.017,6.677 -0.339,4.975 0,2.75 0,0"
             style="fill:#231f20;fill-opacity:1;fill-rule:nonzero;stroke:none"
             id="path89"
             inkscape:connector-curvature="0" /></g><g
           id="g91"
           transform="translate(258.4905,26.6848)"><path
             d="m 0,0 c 0,-0.308 -0.364,-0.876 -1.09,-1.701 -1.221,0.344 -1.832,0.855 -1.832,1.536 0,0.651 0.246,1.405 0.739,2.256 0.26,0.024 0.797,0.093 1.611,0.203 C -0.191,1.494 0,0.729 0,0 m -1.182,-8.398 c 0.037,-0.149 0.116,-3.121 0.239,-8.918 v -0.036 c 0,-0.224 -0.136,-0.889 -0.406,-1.999 l -0.481,-0.112 c -0.013,-0.012 -0.038,-0.017 -0.075,-0.017 -0.246,0 -0.783,0.153 -1.609,0.462 0.012,0.037 0.019,0.08 0.019,0.13 0,0.259 -0.136,0.598 -0.408,1.018 -0.419,0.627 -0.653,1.035 -0.702,1.218 -0.013,0.039 -0.019,0.119 -0.019,0.243 0,0.382 0.05,1.146 0.148,2.294 0.197,2.33 0.48,4.428 0.85,6.29 0.334,0.444 0.747,0.665 1.24,0.665 0.543,0 0.943,-0.412 1.204,-1.238"
             style="fill:#231f20;fill-opacity:1;fill-rule:nonzero;stroke:none"
             id="path93"
             inkscape:connector-curvature="0" /></g><g
           id="g95"
           transform="translate(284.2626,7.9448)"><path
             d="m 0,0 c 0,-0.235 -0.204,-0.704 -0.611,-1.406 -0.21,-0.05 -0.585,-0.147 -1.129,-0.297 0.235,-0.061 0.525,-0.165 0.871,-0.314 l -0.408,-0.351 c -1.283,0.22 -2.177,1.08 -2.682,2.571 0.049,0.95 0.074,2.336 0.074,4.163 -0.064,0.109 -0.253,0.296 -0.574,0.554 -1.752,-0.234 -3.459,-0.549 -5.125,-0.943 -0.801,-0.184 -3.219,-1.128 -7.253,-2.83 -2.54,-1.062 -4.099,-1.589 -4.679,-1.589 -0.531,0 -0.961,0.354 -1.295,1.071 -0.248,0.542 -0.371,1.005 -0.371,1.387 0,1.271 0.594,3.861 1.777,7.77 0.135,0.247 0.332,0.654 0.592,1.222 0.184,1.097 0.395,2.09 0.629,2.977 0.678,2.664 2.176,7.87 4.496,15.615 v 0.186 c 0,0.258 0.061,0.609 0.185,1.053 0.272,0.518 0.826,0.778 1.665,0.778 0.37,0 0.603,-0.107 0.703,-0.315 0.344,-0.987 0.517,-1.585 0.517,-1.796 0,-0.184 -0.55,-2.213 -1.646,-6.085 -1.049,-3.701 -1.697,-5.908 -1.942,-6.624 -0.555,-1.616 -1.222,-3.976 -1.999,-7.085 C -18.87,7.011 -19.203,5.5 -19.203,5.179 V 4.736 c 0.16,-0.148 0.4,-0.223 0.721,-0.223 0.135,0 0.511,0.131 1.129,0.389 l 1.331,0.555 c 1.074,0.333 3.047,0.869 5.921,1.611 3.268,0.85 5.118,1.275 5.549,1.275 h 0.444 c 2.443,0 3.664,-1.382 3.664,-4.144 0,-0.419 -0.056,-1.103 -0.167,-2.053 V 2.089 c 0,-0.196 0.091,-0.579 0.277,-1.145 z"
             style="fill:#231f20;fill-opacity:1;fill-rule:nonzero;stroke:none"
             id="path97"
             inkscape:connector-curvature="0" /></g><g
           id="g99"
           transform="translate(304.8705,15.7144)"><path
             d="M 0,0 C 0,1.838 -1.152,2.757 -3.458,2.757 -5.137,2.757 -7.08,2.393 -9.285,1.665 -9.472,1.517 -9.706,1.338 -9.99,1.129 c -0.53,-0.038 -0.986,-0.168 -1.368,-0.388 -1.654,-1.616 -2.479,-2.653 -2.479,-3.109 0,-0.74 0.657,-1.461 1.979,-2.165 1.159,-0.615 2.116,-0.925 2.867,-0.925 1.27,0 3.009,0.548 5.219,1.646 C -1.256,-2.553 0,-1.282 0,0 M 3.775,-0.74 C 3.775,-2.233 3.411,-3.429 2.683,-4.329 1.929,-5.23 0.5,-6.215 -1.609,-7.287 c -1.492,-0.754 -3.165,-1.345 -5.014,-1.778 -0.468,-0.11 -1.005,-0.242 -1.609,-0.388 -1.543,0 -3.282,0.517 -5.218,1.554 -2.17,1.146 -3.411,2.479 -3.718,3.996 -0.048,0.147 -0.154,0.456 -0.315,0.925 -0.21,0.567 -0.314,0.888 -0.314,0.962 0,0.234 0.141,0.814 0.427,1.739 0.281,0.925 0.518,1.536 0.702,1.832 0.234,0.419 0.807,0.838 1.722,1.256 l 1.812,0.853 c 1.28,0.739 2.794,1.46 4.532,2.164 l 1.406,0.093 c 0.173,0.085 0.407,0.201 0.704,0.351 0.075,0 0.473,0.036 1.202,0.111 0.727,0.073 1.114,0.109 1.166,0.109 3.663,0 6.03,-1.559 7.105,-4.679 0.527,-1.516 0.794,-2.367 0.794,-2.553"
             style="fill:#231f20;fill-opacity:1;fill-rule:nonzero;stroke:none"
             id="path101"
             inkscape:connector-curvature="0" /></g><g
           id="g103"
           transform="translate(331.106,18.5082)"><path
             d="m 0,0 c 0,-0.309 -0.15,-0.636 -0.446,-0.981 -0.308,-0.246 -1.306,-1.012 -2.996,-2.293 -0.012,-0.149 -0.039,-0.341 -0.075,-0.575 -6.399,-4.783 -9.817,-7.176 -10.248,-7.176 -0.2,0 -0.654,0.234 -1.369,0.701 -0.728,0.481 -1.153,0.815 -1.278,1 -1.7,2.91 -2.995,5.495 -3.885,7.752 -0.071,0.098 -0.191,0.247 -0.351,0.443 -0.184,0.247 -0.277,0.468 -0.277,0.666 0.58,1.504 1.128,2.257 1.645,2.257 0.137,0 1.032,-1.24 2.684,-3.717 1.665,-2.492 2.59,-3.738 2.774,-3.738 0.173,0 0.756,0.292 1.748,0.879 0.994,0.585 1.631,1.007 1.917,1.267 0.801,0.419 1.886,1.054 3.254,1.906 0.298,0.294 0.822,0.714 1.573,1.257 1.172,0.495 2.688,1.012 4.55,1.554 C -0.259,0.821 0,0.419 0,0"
             style="fill:#231f20;fill-opacity:1;fill-rule:nonzero;stroke:none"
             id="path105"
             inkscape:connector-curvature="0" /></g><g
           id="g107"
           transform="translate(351.1021,9.6655)"><path
             d="m 0,0 c 0,-1.789 -0.418,-2.683 -1.256,-2.683 -0.112,0 -0.394,0.11 -0.851,0.333 -0.531,0.259 -0.919,0.414 -1.167,0.463 -0.702,1.096 -1.053,2.194 -1.053,3.293 0,1.221 -0.408,3.107 -1.222,5.661 -0.136,0.172 -0.437,0.258 -0.907,0.258 -0.406,0 -0.938,-0.178 -1.592,-0.536 C -8.156,6.726 -8.336,6.629 -8.582,6.492 L -9.637,5.938 c -0.481,-0.346 -1.399,-1.314 -2.755,-2.904 -1.555,-1.825 -2.504,-2.738 -2.85,-2.738 -0.888,0 -1.634,0.56 -2.24,1.683 -0.515,0.937 -0.777,1.843 -0.777,2.718 0,0.347 0.266,1.056 0.797,2.129 0,0.221 0.054,0.581 0.166,1.072 0.074,0.284 0.402,0.957 0.981,2.016 0.025,0 0.209,0.043 0.555,0.131 0.345,0.062 0.541,0.093 0.591,0.093 0.038,-0.174 0.308,-0.463 0.815,-0.87 0.504,-0.408 0.85,-0.609 1.037,-0.609 0.036,0 1.17,0.491 3.403,1.479 2.22,0.998 3.361,1.498 3.422,1.498 1.259,0 2.615,-0.925 4.07,-2.776 C -2.101,8.454 -1.633,7.725 -1.016,6.677 -0.338,4.975 0,2.75 0,0"
             style="fill:#231f20;fill-opacity:1;fill-rule:nonzero;stroke:none"
             id="path109"
             inkscape:connector-curvature="0" /></g><g
           id="g111"
           transform="translate(372.2873,7.6471)"><path
             d="m 0,0 c 0,-0.442 -0.134,-0.85 -0.398,-1.22 -0.265,-0.37 -0.563,-0.555 -0.899,-0.555 -0.482,0.088 -1.868,0.739 -4.161,1.961 -1.32,0.691 -2.042,1.061 -2.165,1.11 -0.518,0 -1.246,-0.209 -2.184,-0.628 -1.245,-0.555 -1.966,-0.87 -2.163,-0.944 -0.827,-0.272 -1.648,-0.406 -2.461,-0.406 -1.036,0 -2.308,0.689 -3.811,2.071 -0.517,0.74 -0.777,1.4 -0.777,1.979 0,0.777 0.253,1.814 0.757,3.11 0.113,0.307 0.468,0.603 1.075,0.888 l 1.145,0.536 c 2.666,1.627 5.101,2.441 7.31,2.441 0.627,0 1.449,-0.185 2.46,-0.554 0.294,-0.112 0.658,-0.537 1.091,-1.277 0.445,-0.74 0.666,-1.289 0.666,-1.647 0,-0.617 -0.364,-1.153 -1.092,-1.61 -1.516,0.853 -2.7,1.277 -3.552,1.277 -0.914,0 -1.85,-0.228 -2.811,-0.685 -1.209,-0.567 -2.177,-1.191 -2.904,-1.868 0.084,-0.369 0.522,-0.555 1.313,-0.555 -0.061,0 -0.093,0.006 -0.093,0.018 0,0.086 0.82,0.382 2.459,0.888 1.949,0.617 3.401,0.925 4.349,0.925 0.258,0 1.179,-0.659 2.757,-1.978 C -2.386,1.845 -1.172,0.945 -0.444,0.574 -0.15,0.316 0,0.125 0,0"
             style="fill:#231f20;fill-opacity:1;fill-rule:nonzero;stroke:none"
             id="path113"
             inkscape:connector-curvature="0" /></g><g
           id="g115"
           transform="translate(437.9237,33.6044)"><path
             d="M 0,0 C -0.234,-0.568 -0.992,-0.853 -2.276,-0.853 L -6.64,-0.869 c -0.036,-0.014 -0.854,-0.13 -2.443,-0.352 -1.024,-0.148 -1.596,-0.223 -1.722,-0.223 -0.047,0 -0.168,0.054 -0.359,0.159 -0.191,0.104 -0.299,0.156 -0.323,0.156 -2.787,-0.284 -4.523,-0.424 -5.2,-0.424 -0.134,0 -1.503,-0.131 -4.108,-0.39 -0.912,-0.099 -1.541,-0.198 -1.886,-0.296 -0.716,-0.22 -1.22,-0.592 -1.516,-1.111 -1.061,-1.874 -2.049,-5.24 -2.961,-10.1 -0.211,-1.122 -0.414,-2.455 -0.611,-3.996 -0.037,-0.32 -0.104,-0.919 -0.202,-1.796 -0.259,-0.541 -0.556,-1.381 -0.887,-2.514 v -0.147 c 0,-0.692 -0.156,-1.655 -0.466,-2.886 -0.589,-1.025 -1.187,-1.536 -1.794,-1.536 -1.171,0 -1.755,0.493 -1.755,1.479 0,0.1 0.203,0.784 0.61,2.055 0.037,0.295 0.129,1.079 0.277,2.348 0.111,0.16 0.252,0.418 0.425,0.778 0.036,0.838 0.08,1.381 0.13,1.627 0.11,0.592 0.303,0.999 0.574,1.221 v 0.279 c 0,1.406 0.327,3.174 0.981,5.308 l 2.755,8.936 c -0.196,0.159 -0.401,0.24 -0.611,0.24 -2.861,0 -5.165,-0.11 -6.917,-0.332 -0.816,-0.099 -2.29,-0.383 -4.422,-0.853 -1.874,-0.392 -2.863,-0.591 -2.961,-0.591 l -1.627,0.666 c -0.27,0.468 -0.407,0.925 -0.407,1.37 0,0.788 0.307,1.232 0.925,1.332 0.357,0.05 2.139,0.3 5.345,0.758 l 10.898,0.629 c 0.124,0.012 0.586,0.117 1.386,0.315 0.817,0.197 1.228,0.295 1.24,0.295 0.011,0 0.211,-0.098 0.594,-0.295 0.392,-0.21 0.622,-0.315 0.683,-0.315 l 17.057,0.777 c 0.062,0 0.603,-0.123 1.628,-0.37 1.061,-0.272 1.603,-0.407 1.629,-0.407 0.036,0 0.154,0.027 0.35,0.083 0.198,0.055 0.315,0.082 0.354,0.082 C -1.154,1.09 -0.491,0.726 0,0"
             style="fill:#231f20;fill-opacity:1;fill-rule:nonzero;stroke:none"
             id="path117"
             inkscape:connector-curvature="0" /></g><g
           id="g119"
           transform="translate(446.7859,17.8606)"><path
             d="m 0,0 c -0.037,-0.025 -0.591,-0.345 -1.663,-0.961 l -0.334,0.313 c -0.248,-0.209 -0.475,-0.313 -0.684,-0.313 -0.125,0 -1.536,0.122 -4.236,0.37 l -4.237,0.387 c -3.69,0 -6.28,-1.196 -7.77,-3.588 -0.37,-0.592 -0.71,-1.629 -1.018,-3.109 -0.087,-0.074 -0.229,-0.216 -0.426,-0.425 0,-0.827 -0.155,-1.931 -0.462,-3.312 -0.543,-0.21 -1.111,-0.314 -1.702,-0.314 -1.345,0 -2.017,0.838 -2.017,2.517 0.038,0.257 0.131,1.128 0.277,2.607 0.172,1.729 0.298,3.028 0.371,3.905 0.678,1.528 1.295,2.293 1.849,2.293 0.655,-0.27 1.025,-0.407 1.109,-0.407 0.037,0 0.518,0.364 1.445,1.092 0.975,0.531 2.047,1.072 3.218,1.627 1.135,0.543 2.467,0.813 3.996,0.813 0.444,0 3.725,-0.517 9.843,-1.552 C -2.404,1.88 -2.3,1.77 -2.127,1.609 L -0.204,1.388 C -0.204,0.561 -0.134,0.1 0,0"
             style="fill:#231f20;fill-opacity:1;fill-rule:nonzero;stroke:none"
             id="path121"
             inkscape:connector-curvature="0" /></g><g
           id="g123"
           transform="translate(469.5779,20.3772)"><path
             d="M 0,0 C 0,-0.827 -0.086,-1.456 -0.259,-1.887 -0.604,-2.777 -0.998,-3.786 -1.445,-4.921 -1.566,-4.959 -1.702,-5.07 -1.85,-5.254 -1.936,-5.687 -2.252,-6.198 -2.794,-6.789 l -1.295,-1.444 c -0.037,-0.111 -0.08,-0.265 -0.13,-0.463 -1.282,-1.283 -3.008,-2.46 -5.181,-3.534 -2.082,-0.628 -3.595,-0.943 -4.53,-0.943 -0.594,0 -1.458,0.172 -2.592,0.519 -4.291,1.295 -6.437,4.315 -6.437,9.065 0,1.626 0.525,3.102 1.573,4.422 h 0.963 c 0.775,-0.569 1.163,-1.451 1.163,-2.648 0,-0.06 -0.022,-0.474 -0.065,-1.239 -0.041,-0.764 -0.064,-1.188 -0.064,-1.275 0,-2.133 1.147,-3.515 3.44,-4.146 0.815,-0.221 1.225,-0.345 1.225,-0.369 0,-0.011 -0.014,-0.018 -0.038,-0.018 0.024,0 0.236,0.021 0.637,0.064 0.401,0.043 0.633,0.066 0.694,0.066 1.22,0 2.893,0.696 5.013,2.09 1.26,0.838 2.51,2.066 3.755,3.681 1.261,1.603 1.966,2.898 2.129,3.886 0.037,0.184 0.264,0.462 0.684,0.833 0.432,0.382 0.728,0.573 0.886,0.573 C -0.32,2.331 0,1.552 0,0"
             style="fill:#231f20;fill-opacity:1;fill-rule:nonzero;stroke:none"
             id="path125"
             inkscape:connector-curvature="0" /></g><g
           id="g127"
           transform="translate(493.9618,20.6359)"><path
             d="m 0,0 c 0,-0.432 -0.182,-0.76 -0.546,-0.98 -0.363,-0.223 -1.052,-0.427 -2.064,-0.612 -0.864,-0.172 -1.425,-0.357 -1.682,-0.555 -1.05,-0.136 -1.603,-0.203 -1.666,-0.203 -1.024,0 -2.54,-0.142 -4.551,-0.425 -0.629,-0.074 -1.004,-0.284 -1.129,-0.629 -0.246,-0.703 -0.512,-1.801 -0.796,-3.293 -0.023,-1.271 -0.257,-3.306 -0.701,-6.106 -0.421,-0.579 -0.63,-0.888 -0.63,-0.925 -1.359,0.075 -2.195,0.284 -2.517,0.629 -0.145,0.173 -0.221,0.643 -0.221,1.406 0,0.937 0.29,3.8 0.87,8.584 -0.309,0.271 -0.606,0.407 -0.887,0.407 h -0.113 c -0.357,-0.049 -0.641,-0.073 -0.851,-0.073 -0.135,0 -0.24,0.011 -0.314,0.036 -1.245,0.063 -2.477,0.112 -3.702,0.148 -1.526,0.259 -2.293,1.024 -2.293,2.295 0,0.431 0.167,0.819 0.501,1.165 0.331,0.345 0.71,0.518 1.128,0.518 0.037,0 0.385,-0.034 1.046,-0.102 0.661,-0.067 1.013,-0.102 1.063,-0.102 0.025,0 0.312,0.025 0.86,0.074 0.551,0.05 0.842,0.074 0.879,0.074 0.038,0 0.191,-0.056 0.464,-0.166 0.258,-0.098 0.408,-0.147 0.444,-0.147 0.06,0 0.425,0.023 1.089,0.072 0.643,0.05 0.975,0.075 1.001,0.075 0.628,0 1.022,0.315 1.185,0.943 0.134,0.506 0.338,1.315 0.608,2.424 l 1.278,3.608 c 0.047,0.48 0.147,1.128 0.295,1.943 0.322,0.454 0.636,1.004 0.943,1.645 1.443,3.022 2.665,4.533 3.663,4.533 0.433,0 1.041,-0.703 1.832,-2.109 0,-0.247 -0.228,-0.814 -0.684,-1.702 C -6.446,12.154 -6.766,11.698 -7.16,11.081 -7.48,10.069 -8.164,8.17 -9.216,5.382 -9.523,4.582 -9.776,3.304 -9.971,1.553 -9.046,1.294 -8.512,1.165 -8.362,1.165 l 0.998,0.129 c 0.852,0.113 1.456,0.166 1.813,0.166 0.899,0 1.67,-0.073 2.313,-0.221 L -2.276,1.018 C -0.761,1.018 0,0.678 0,0"
             style="fill:#231f20;fill-opacity:1;fill-rule:nonzero;stroke:none"
             id="path129"
             inkscape:connector-curvature="0" /></g><g
           id="g131"
           transform="translate(510.6119,9.6655)"><path
             d="m 0,0 c 0,-1.789 -0.42,-2.683 -1.256,-2.683 -0.112,0 -0.396,0.11 -0.853,0.333 -0.531,0.259 -0.918,0.414 -1.165,0.463 -0.705,1.096 -1.055,2.194 -1.055,3.293 0,1.221 -0.407,3.107 -1.22,5.661 -0.136,0.172 -0.439,0.258 -0.907,0.258 -0.409,0 -0.938,-0.178 -1.592,-0.536 -0.11,-0.063 -0.291,-0.16 -0.537,-0.297 L -9.639,5.938 c -0.481,-0.346 -1.4,-1.314 -2.756,-2.904 -1.554,-1.825 -2.503,-2.738 -2.849,-2.738 -0.889,0 -1.636,0.56 -2.238,1.683 -0.519,0.937 -0.777,1.843 -0.777,2.718 0,0.347 0.263,1.056 0.795,2.129 0,0.221 0.056,0.581 0.166,1.072 0.074,0.284 0.401,0.957 0.979,2.016 0.027,0 0.211,0.043 0.557,0.131 0.345,0.062 0.541,0.093 0.591,0.093 0.04,-0.174 0.31,-0.463 0.815,-0.87 0.506,-0.408 0.852,-0.609 1.036,-0.609 0.037,0 1.173,0.491 3.404,1.479 2.219,0.998 3.36,1.498 3.424,1.498 1.257,0 2.613,-0.925 4.068,-2.776 C -2.102,8.454 -1.636,7.725 -1.018,6.677 -0.34,4.975 0,2.75 0,0"
             style="fill:#231f20;fill-opacity:1;fill-rule:nonzero;stroke:none"
             id="path133"
             inkscape:connector-curvature="0" /></g><g
           id="g135"
           transform="translate(530.3893,15.7144)"><path
             d="m 0,0 c 0,1.838 -1.154,2.757 -3.461,2.757 -1.676,0 -3.619,-0.364 -5.826,-1.092 -0.186,-0.148 -0.42,-0.327 -0.704,-0.536 -0.53,-0.038 -0.987,-0.168 -1.368,-0.388 -1.654,-1.616 -2.48,-2.653 -2.48,-3.109 0,-0.74 0.658,-1.461 1.98,-2.165 1.159,-0.615 2.116,-0.925 2.867,-0.925 1.271,0 3.009,0.548 5.217,1.646 C -1.259,-2.553 0,-1.282 0,0 m 3.772,-0.74 c 0,-1.493 -0.363,-2.689 -1.091,-3.589 -0.752,-0.901 -2.183,-1.886 -4.292,-2.958 -1.493,-0.754 -3.163,-1.345 -5.014,-1.778 -0.467,-0.11 -1.003,-0.242 -1.609,-0.388 -1.542,0 -3.281,0.517 -5.217,1.554 -2.171,1.146 -3.411,2.479 -3.718,3.996 -0.048,0.147 -0.155,0.456 -0.315,0.925 -0.21,0.567 -0.314,0.888 -0.314,0.962 0,0.234 0.141,0.814 0.427,1.739 0.281,0.925 0.518,1.536 0.702,1.832 0.234,0.419 0.807,0.838 1.722,1.256 l 1.812,0.853 c 1.282,0.739 2.794,1.46 4.53,2.164 l 1.406,0.093 c 0.173,0.085 0.407,0.201 0.707,0.351 0.073,0 0.471,0.036 1.199,0.111 0.73,0.073 1.117,0.109 1.167,0.109 3.662,0 6.032,-1.559 7.104,-4.679 0.53,-1.516 0.794,-2.367 0.794,-2.553"
             style="fill:#231f20;fill-opacity:1;fill-rule:nonzero;stroke:none"
             id="path137"
             inkscape:connector-curvature="0" /></g><g
           id="g139"
           transform="translate(556.6226,18.5082)"><path
             d="m 0,0 c 0,-0.309 -0.15,-0.636 -0.446,-0.981 -0.308,-0.246 -1.306,-1.012 -2.996,-2.293 -0.012,-0.149 -0.036,-0.341 -0.073,-0.575 -6.401,-4.783 -9.819,-7.176 -10.25,-7.176 -0.198,0 -0.652,0.234 -1.369,0.701 -0.728,0.481 -1.153,0.815 -1.278,1 -1.7,2.91 -2.995,5.495 -3.885,7.752 -0.071,0.098 -0.191,0.247 -0.351,0.443 -0.184,0.247 -0.277,0.468 -0.277,0.666 0.58,1.504 1.128,2.257 1.645,2.257 0.137,0 1.032,-1.24 2.684,-3.717 1.665,-2.492 2.59,-3.738 2.776,-3.738 0.171,0 0.754,0.292 1.748,0.879 0.992,0.585 1.631,1.007 1.915,1.267 0.801,0.419 1.886,1.054 3.254,1.906 0.298,0.294 0.822,0.714 1.575,1.257 1.172,0.495 2.686,1.012 4.551,1.554 C -0.259,0.821 0,0.419 0,0"
             style="fill:#231f20;fill-opacity:1;fill-rule:nonzero;stroke:none"
             id="path141"
             inkscape:connector-curvature="0" /></g><g
           id="g143"
           transform="translate(83.5283,30.7759)"><path
             d="m 0,0 c -2.936,-1.367 -4.769,-3.198 -6.267,-3.902 -0.322,0.477 -0.57,1.399 -0.954,2.569 -1.085,1.609 -1.082,3.017 -2.202,2.259 -0.518,-0.346 -0.539,-2.35 -0.591,-2.788 0.025,-0.29 0.696,-2.349 0.696,-2.349 0.029,-0.128 0.003,-0.258 -0.048,-0.39 0.073,-0.275 0.14,-0.597 0.297,-1.108 0.36,-1.175 0.392,-1.955 0.96,-2.065 0.568,-0.109 1.333,0.035 2.052,0.522 0.72,0.487 1.602,1.499 3.09,2.202 h 0.003 c 1.047,0.938 2.355,1.939 3.934,3.004 0.921,0.622 1.502,1.157 1.737,1.606 C 2.895,0.244 3.013,0.772 3.049,1.142 2.196,1.582 0.384,0.029 0,0"
             style="fill:#231f20;fill-opacity:1;fill-rule:nonzero;stroke:none"
             id="path145"
             inkscape:connector-curvature="0" /></g><g
           id="g147"
           transform="matrix(0.30067753,0,0,0.30067753,290.58499,480.90069)"
           style="fill:#136f63;fill-opacity:1"><path
             d="m 0,0 -99.324,-46.737 -2.59,2.522 c -0.479,3.027 -0.787,6.497 -0.787,10.457 0,18.543 6.658,27.102 6.658,27.102 l 48.701,20.413 c -26.022,20.66 -51.671,41.777 -77.475,62.704 -0.599,-0.127 -0.901,-0.189 -1.497,-0.314 -1.038,-0.217 -1.604,-0.667 -1.708,-1.35 -0.154,-1.023 0.907,-3.013 2.984,-5.853 3.314,-4.531 7.539,-9.625 12.29,-14.97 4.752,-5.343 7.512,-8.399 8.916,-9.627 0.454,-0.393 0.679,-0.59 1.127,-0.981 0.261,-0.227 0.38,-0.435 0.368,-0.621 -0.011,-0.186 -0.114,-0.315 -0.307,-0.388 -0.232,-0.088 -0.475,-0.092 -0.717,-0.027 -0.377,0.101 -0.688,0.248 -0.914,0.447 -12.25,10.772 -24.644,21.374 -37.099,31.908 l -39.778,-8.12 c 0,0 -5.993,-5.547 -5.993,-19.494 0,-13.63 5.993,-20.921 5.993,-20.921 L -96.043,-60.385 21.923,-0.476 0,10.624 Z m 21.923,42.792 -91.815,46.485 -26.13,-5.334 c 11.722,-8.466 23.486,-16.864 35.315,-25.176 0.246,-0.173 0.372,-0.345 0.372,-0.514 0,-0.169 -0.119,-0.297 -0.36,-0.387 -0.201,-0.075 -0.463,-0.088 -0.782,-0.037 -0.319,0.051 -0.605,0.163 -0.85,0.336 -0.823,0.577 -1.234,0.866 -2.059,1.447 -2.011,1.415 -6.303,3.815 -13.187,7.494 -6.881,3.678 -13.325,6.917 -19.258,9.624 -3.817,1.74 -6.478,2.827 -7.799,3.107 -1.323,0.28 -2.329,0.356 -2.999,0.215 -0.923,-0.193 -1.385,-0.29 -2.312,-0.484 C -83.77,59.652 -57.423,40 -30.801,20.692 Z"
             style="fill:#136f63;fill-opacity:1;fill-rule:nonzero;stroke:none"
             id="path149"
             inkscape:connector-curvature="0" /></g></g></g></g></svg>